<?xml version="1.0" encoding="utf-8"?>
<!-- Generator: Adobe Illustrator 19.2.1, SVG Export Plug-In . SVG Version: 6.00 Build 0)  -->
<svg version="1.1" id="Layer_1" xmlns="http://www.w3.org/2000/svg" xmlns:xlink="http://www.w3.org/1999/xlink" x="0px" y="0px"
	 viewBox="0 0 247.7 93.6" style="enable-background:new 0 0 247.7 93.6;" xml:space="preserve">
<style type="text/css">
	.st0{fill:#FFFFFF;}
	.st1{fill:#D35715;}
	.st2{fill:#EC671D;}
</style>
<g>
	<g>
		<g>
			<g>
				<g>
					<g>
						<g>
							<g>
								<path class="st0" d="M194.5,19.1c4.7-0.9,9.8,0.3,13.7,3.2c3,2.2,5.2,5.4,6.3,8.9c1.3,4.3,0.9,9.2-1.3,13.2
									c-1.9,3.6-5.1,6.5-8.8,8c-4.2,1.7-9.1,1.7-13.3,0c-4.1-1.7-7.5-5-9.3-9.1c-2.1-4.7-1.9-10.4,0.4-15
									C184.6,23.6,189.3,20.1,194.5,19.1z M195.3,26.3c-3.7,0.9-6.8,4.1-7.6,7.8c-0.6,2.5-0.1,5.3,1.2,7.5
									c1.5,2.5,4.1,4.3,6.9,4.8c2.2,0.4,4.5,0.1,6.5-1c2.4-1.3,4.3-3.6,5.1-6.2c0.7-2.4,0.5-5-0.5-7.2c-1.1-2.5-3.3-4.5-5.9-5.5
									C199.2,25.9,197.2,25.8,195.3,26.3z"/>
							</g>
							<path class="st1" d="M91.5,19.6c9.6,0,19.2,0,28.8,0c0,2.1,0,4.2,0,6.2c-3.6,0-7.1,0-10.7,0c0,9.2,0,18.4,0,27.6
								c-2.5,0-4.9,0-7.4,0c0-9.2,0-18.4,0-27.6c-3.6,0-7.2,0-10.7,0"/>
							<g>
								<path class="st0" d="M124,19.6c5.3,0,10.5,0,15.8,0c2.7,0.1,5.5,0.8,7.7,2.6c2.1,1.8,3.2,4.4,3.4,7.1
									c0.3,3.1-0.5,6.5-2.8,8.8c-2.1,2.2-5.3,3.1-8.3,3.2c-2.8,0-5.6,0-8.4,0c0,4,0,8.1,0,12.1c-2.5,0-4.9,0-7.4,0
									C124,42.1,124,30.8,124,19.6z M131.4,25.3c0,3.4,0,6.8,0,10.2c1.9,0,3.9,0,5.8,0c1.5,0,3.2-0.1,4.5-0.9
									c1-0.6,1.6-1.6,1.8-2.7c0.3-1.8,0.2-4-1.4-5.3c-1.3-1.1-3.1-1.2-4.7-1.2C135.4,25.3,133.4,25.3,131.4,25.3z"/>
							</g>
							<g>
								<path class="st0" d="M152,19.6c5.2,0,10.4,0,15.5,0c2.6,0,5.2,0.6,7.3,2.1c1.8,1.3,3.1,3.2,3.7,5.3c1,3.5,0.5,7.6-1.8,10.5
									c-1.4,1.7-3.4,2.9-5.5,3.4c3.2,4.1,6.3,8.3,9.5,12.5c-2.9,0-5.9,0-8.8,0c-0.3,0.1-0.5-0.3-0.6-0.5
									c-2.7-3.9-5.5-7.8-8.2-11.6c-1.2,0-2.4,0-3.6,0c0,4,0,8.1,0,12.1c-2.5,0-5,0-7.5,0C152,42.1,152,30.8,152,19.6z M159.5,25.3
									c0,3.4,0,6.8,0,10.2c2,0,4,0,6,0c1.5,0,3.2-0.2,4.5-1c1-0.6,1.5-1.8,1.7-2.9c0.2-1.3,0.1-2.6-0.4-3.8
									c-0.4-0.9-1.2-1.6-2.1-2c-1.3-0.5-2.8-0.5-4.2-0.5C163.2,25.3,161.3,25.3,159.5,25.3z"/>
							</g>
						</g>
						<g>
							<path class="st0" d="M177.4,57.8c1-1,2.6-1.3,4-1.2c1.4,0.1,2.9,0.5,3.8,1.7c0.5,0.6,0.6,1.5,0.7,2.3
								c-0.9-0.1-1.7-0.2-2.6-0.4c-0.4-1.5-2.2-1.8-3.5-1.3c-0.8,0.3-1.1,1.5-0.4,2c1.8,1,4,0.8,5.6,2c1.7,1.2,1.6,3.9,0.1,5.2
								c-1.2,1.1-2.9,1.4-4.5,1.3c-1.5-0.1-3.1-0.6-4-1.9c-0.5-0.7-0.6-1.6-0.7-2.4c0.9,0.1,1.7,0.3,2.6,0.4c0.4,2,2.9,2.2,4.4,1.5
								c0.9-0.4,0.9-1.8,0-2.2c-1.7-0.9-3.8-0.8-5.4-1.9C175.9,61.6,176,59,177.4,57.8z"/>
							<path class="st0" d="M191.2,59.3c1.2-1.7,3.2-2.8,5.3-2.7c2.2,0,4.3,1.3,5.4,3.2c-0.8,0.4-1.6,0.8-2.4,1.2
								c-0.8-1.2-2.3-2-3.7-1.8c-1.7,0.2-3,1.7-3.1,3.3c-0.1,1.3,0.6,2.7,1.7,3.4c1.7,1.1,4.2,0.5,5.2-1.2c-1.1,0-2.2,0-3.2,0
								c0-0.8,0-1.5,0-2.3c2.1,0,4.2,0,6.3,0c-0.1,1-0.1,2-0.5,3c-1,2.2-3.2,3.7-5.6,3.7c-2.3,0.1-4.6-1.3-5.7-3.3
								C189.7,63.9,189.9,61.2,191.2,59.3z"/>
							<g>
								<path class="st0" d="M102.1,56.9c2,0,4.1,0,6.1,0c1.1,0,2.3,0.3,3,1.2c1,1.4,0.6,3.6-1.1,4.4c2.3,0.6,2.8,3.8,1.3,5.4
									c-0.9,1-2.3,1.3-3.5,1.3c-1.9,0-3.9,0-5.8,0C102.1,65,102.1,60.9,102.1,56.9z M104.8,59c0,1,0,1.9,0,2.9
									c1.1,0,2.3,0.1,3.4-0.1c1.1-0.3,1.3-2.2,0.1-2.6C107.2,58.8,106,59,104.8,59z M104.8,63.6c0,1.1,0,2.2,0,3.3
									c1.3-0.1,2.6,0.1,3.8-0.1c1.4-0.3,1.4-2.7,0-3C107.3,63.5,106,63.7,104.8,63.6z"/>
							</g>
							<path class="st0" d="M113.2,56.9c0.9,0,1.8,0,2.7,0c0,2.6,0,5.2,0,7.7c0,0.8,0.2,1.7,1,2.1c0.9,0.4,2,0.4,2.9,0.1
								c0.9-0.3,1.2-1.4,1.2-2.3c0-2.6,0-5.2,0-7.8c0.9,0,1.8,0,2.7,0c0,2.6,0,5.2,0,7.7c0,1.3-0.4,2.6-1.3,3.5
								c-1,0.9-2.5,1.2-3.8,1.2c-1.4,0-2.8-0.3-3.9-1.2c-1-0.9-1.4-2.3-1.3-3.6C113.2,62,113.2,59.4,113.2,56.9z"/>
							<path class="st0" d="M125.1,56.9c0.9,0,1.8,0,2.7,0c0,4.1,0,8.1,0,12.2c-0.9,0-1.8,0-2.7,0C125.1,65,125.1,60.9,125.1,56.9z"
								/>
							<path class="st0" d="M153.5,61.6c0,0.9,0,1.8,0,2.7c-1,0-2,0-3,0c0-0.9,0-1.8,0-2.7C151.5,61.6,152.5,61.6,153.5,61.6z"/>
							<path class="st0" d="M129,69c0-4,0-8.1,0-12.1c0.9,0,1.7,0,2.6,0c0,3.3,0,6.6,0,9.8c2.1,0,4.2,0,6.3,0c0,0.7,0,1.5,0,2.2
								C134.9,69,132,69,129,69z"/>
							<g>
								<path class="st0" d="M138.5,69c0-4.1,0-8.1,0-12.2c1.9,0,3.7,0,5.6,0c1.5,0,3,0.7,4,1.9c0.9,1.2,1.3,2.8,1.2,4.3
									c0,1.6-0.4,3.4-1.6,4.6c-1,1-2.5,1.5-3.9,1.5C142.1,69,140.3,69,138.5,69z M141.2,59.1c0,2.5,0,5.1,0,7.6
									c1.1,0,2.2,0.1,3.2-0.1c1.4-0.3,2.1-1.7,2.2-3c0.1-1.4-0.1-3.2-1.4-4C144.1,58.9,142.6,59.2,141.2,59.1z"/>
							</g>
							<g>
								<path class="st0" d="M154.6,56.9c1.8,0,3.6,0,5.4,0c1.7,0,3.4,0.7,4.4,2.1c1,1.4,1.2,3.3,1,5c-0.1,1.3-0.6,2.7-1.7,3.7
									c-1,1-2.4,1.4-3.7,1.4c-1.8,0-3.6,0-5.4,0C154.6,65,154.6,60.9,154.6,56.9z M157.3,66.8c1.1,0,2.2,0.1,3.3-0.1
									c1.3-0.3,2-1.7,2.1-3c0.1-1.4-0.1-3-1.3-3.9c-1.2-0.9-2.8-0.5-4.1-0.6C157.3,61.7,157.3,64.2,157.3,66.8z"/>
							</g>
							<path class="st0" d="M166.1,56.9c3,0,5.9,0,8.9,0c0,0.8,0,1.5,0,2.3c-2.1,0-4.2,0-6.3,0c0,0.9,0,1.8,0,2.6c1.9,0,3.7,0,5.6,0
								c0,0.8,0,1.6,0,2.4c-1.9,0-3.7,0-5.6,0c0,0.9,0,1.7,0,2.6c2.3,0,4.6,0,6.9,0c0,0.8,0,1.5,0,2.3c-3.2,0-6.3,0-9.5,0
								C166.1,65,166.1,60.9,166.1,56.9z"/>
							<path class="st0" d="M186.8,69c0-4.1,0-8.1,0-12.2c0.9,0,1.8,0,2.7,0c0,4.1,0,8.1,0,12.2C188.6,69,187.7,69,186.8,69z"/>
							<path class="st0" d="M202.9,56.9c1,0,2.1,0,3.1,0c1.8,2.5,3.6,5,5.4,7.5c0-2.5,0-5,0-7.5c0.8,0,1.5,0,2.3,0
								c0,4.1,0,8.1,0,12.2c-0.8,0-1.5,0-2.3,0c-2.1-2.8-4.1-5.6-6.2-8.3c0,2.8,0,5.6,0,8.3c-0.8,0-1.6,0-2.3,0
								C202.9,65,202.9,60.9,202.9,56.9z"/>
							<path class="st0" d="M219.1,56.9c0.9,0,1.7,0,2.6,0c0,3.3,0,6.6,0,9.8c2.1,0,4.2,0,6.3,0c0,0.7,0,1.5,0,2.2c-3,0-5.9,0-8.9,0
								C219.1,64.9,219.1,60.9,219.1,56.9z"/>
							<path class="st0" d="M225.8,56.9c3.5,0,7,0,10.4,0c0,0.8,0,1.5,0,2.3c-1.3,0-2.6,0-3.9,0c0,3.3,0,6.6,0,9.9
								c-0.9,0-1.8,0-2.7,0c0-3.3,0-6.6,0-9.9c-1.3,0-2.6,0-3.9,0C225.8,58.4,225.8,57.6,225.8,56.9z"/>
							<g>
								<path class="st0" d="M236.9,56.9c1.9,0,3.8,0,5.7,0c1.8,0,3.6,1,4.4,2.7c0.9,1.9,0.9,4.2,0.2,6.2c-0.6,1.8-2.4,3.1-4.3,3.3
									c-2,0.1-4,0-6,0C236.9,65,236.9,60.9,236.9,56.9z M239.6,66.8c1.1,0,2.2,0.1,3.3-0.1c1.3-0.3,2-1.7,2.1-3
									c0.1-1.3-0.1-2.8-1.1-3.8c-1.2-1-2.9-0.7-4.3-0.7C239.6,61.7,239.6,64.2,239.6,66.8z"/>
							</g>
						</g>
					</g>
				</g>
			</g>
		</g>
		<g>
			<g>
				<polygon class="st2" points="19.4,26.5 68.1,26.5 72.9,32.8 14.6,32.8 				"/>
				<polygon class="st1" points="19.4,39.1 68.1,39.1 72.9,32.8 14.6,32.8 				"/>
			</g>
		</g>
	</g>
	<polygon class="st1" points="43.7,32.8 37.4,39.1 37.4,76.7 10.8,61.7 10.8,25.4 31.8,12.5 31.8,0 0,18.3 0,68.7 43.7,93.6 
		43.7,91.1 43.7,91.1 	"/>
	<polygon class="st2" points="55.6,0 55.6,12.5 76.6,25.4 76.6,61.7 50,76.7 50,39.1 43.7,32.8 43.7,80.3 43.7,80.3 43.7,80.3 
		43.7,93.6 43.7,93.6 87.4,68.7 87.4,18.3 	"/>
</g>
</svg>
